<svg xmlns="http://www.w3.org/2000/svg" viewBox="0 0 512 512" width="512" height="512">
  <defs>
    <linearGradient id="bg" x1="72" y1="48" x2="440" y2="464" gradientUnits="userSpaceOnUse">
      <stop offset="0" stop-color="#38bdf8"/>
      <stop offset="0.52" stop-color="#2563eb"/>
      <stop offset="1" stop-color="#312e81"/>
    </linearGradient>
    <linearGradient id="shine" x1="140" y1="40" x2="368" y2="240" gradientUnits="userSpaceOnUse">
      <stop offset="0" stop-color="#ffffff" stop-opacity="0.34"/>
      <stop offset="1" stop-color="#ffffff" stop-opacity="0"/>
    </linearGradient>
    <filter id="soft-shadow" x="-20%" y="-20%" width="140%" height="140%">
      <feDropShadow dx="0" dy="16" stdDeviation="16" flood-color="#111827" flood-opacity="0.24"/>
    </filter>
  </defs>

  <rect x="28" y="28" width="456" height="456" rx="108" fill="url(#bg)"/>
  <path d="M82 136C104 78 158 54 256 54c104 0 163 34 190 102 11 29-20 47-47 31-48-28-95-42-143-42-52 0-99 14-143 41-28 17-43-18-31-50z" fill="url(#shine)"/>

  <g filter="url(#soft-shadow)" stroke="#ffffff" stroke-width="42" stroke-linecap="round" stroke-linejoin="round" fill="none">
    <path d="M256 100v78"/>
    <path d="M132 204h248"/>
    <path d="M172 296c36 60 84 101 142 124"/>
    <path d="M338 242c-32 93-90 153-176 180"/>
  </g>
</svg>
